<svg xmlns="http://www.w3.org/2000/svg" width="768" height="192" viewBox="0 0 768 192">
  <defs>
    <clipPath id="woodclip"><path d="M45 9 C127 6 202 12 278 8 C365 5 445 13 528 9 C605 6 674 11 726 9 C747 12 757 28 754 51 C758 82 752 112 756 145 C758 167 747 180 724 181 C630 183 546 178 454 181 C360 184 275 178 181 181 C120 184 75 180 42 181 C21 177 14 161 17 139 C13 107 18 76 14 45 C13 25 24 12 45 9 Z"/></clipPath>
  </defs>
  <path d="M45 9 C127 6 202 12 278 8 C365 5 445 13 528 9 C605 6 674 11 726 9 C747 12 757 28 754 51 C758 82 752 112 756 145 C758 167 747 180 724 181 C630 183 546 178 454 181 C360 184 275 178 181 181 C120 184 75 180 42 181 C21 177 14 161 17 139 C13 107 18 76 14 45 C13 25 24 12 45 9 Z" fill="#ddca8f" stroke="#282722" stroke-width="5.2" stroke-linecap="round" stroke-linejoin="round"/>
  <g clip-path="url(#woodclip)" fill="none" stroke="#aa9e70" stroke-width="4" opacity=".38" stroke-linecap="round">
    <path d="M-20 45 C80 19 144 70 244 43 C351 14 423 72 535 40 C620 16 698 58 790 30"/>
    <path d="M-18 79 C70 52 159 103 248 75 C354 42 431 105 543 72 C637 45 706 91 792 63"/>
    <path d="M-11 117 C84 88 167 143 260 111 C356 79 448 140 551 107 C642 79 711 127 785 99"/>
    <path d="M-15 154 C91 126 178 175 273 147 C366 119 453 171 562 143 C653 119 720 158 790 137"/>
  </g>
  <path d="M49 14 C129 11 202 17 279 13 C364 10 444 18 526 14 C604 11 671 16 722 14 M731 15 C750 20 752 34 749 53 C753 83 747 112 751 143 M751 151 C751 167 741 175 721 176 C629 178 545 173 454 176 C361 179 276 173 183 176 M174 176 C117 179 77 175 46 176 C28 171 21 157 23 138 C19 107 24 77 20 47 M20 39 C21 25 31 17 49 14" fill="none" stroke="#282722" stroke-width="1.8" stroke-linecap="round" opacity=".62"/>
</svg>
